<svg width="900" height="173" viewBox="0 0 900 173" fill="none" xmlns="http://www.w3.org/2000/svg">
<g clip-path="url(#clip0_1_45)">
<path d="M0 0L21.5 9C43 18 86 36 128.8 36.5C171.7 37 214.3 20 257.2 11.2C300 2.30001 343 1.70001 385.8 10.2C428.7 18.7 471.3 36.3 514.2 45.7C557 55 600 56 642.8 54.8C685.7 53.7 728.3 50.3 771.2 42.3C814 34.3 857 21.7 878.5 15.3L900 9V173H878.5C857 173 814 173 771.2 173C728.3 173 685.7 173 642.8 173C600 173 557 173 514.2 173C471.3 173 428.7 173 385.8 173C343 173 300 173 257.2 173C214.3 173 171.7 173 128.8 173C86 173 43 173 21.5 173H0V0Z" fill="#202C39"/>
<path d="M0 19L21.5 21C43 23 86 27 128.8 26.8C171.7 26.7 214.3 22.3 257.2 21.7C300 21 343 24 385.8 28.8C428.7 33.7 471.3 40.3 514.2 39.2C557 38 600 29 642.8 26.8C685.7 24.7 728.3 29.3 771.2 32.8C814 36.3 857 38.7 878.5 39.8L900 41V173H878.5C857 173 814 173 771.2 173C728.3 173 685.7 173 642.8 173C600 173 557 173 514.2 173C471.3 173 428.7 173 385.8 173C343 173 300 173 257.2 173C214.3 173 171.7 173 128.8 173C86 173 43 173 21.5 173H0V19Z" fill="#525B66"/>
<path d="M0 62L21.5 61.2C43 60.3 86 58.7 128.8 62.5C171.7 66.3 214.3 75.7 257.2 81.8C300 88 343 91 385.8 85.3C428.7 79.7 471.3 65.3 514.2 64.8C557 64.3 600 77.7 642.8 83C685.7 88.3 728.3 85.7 771.2 79C814 72.3 857 61.7 878.5 56.3L900 51V173H878.5C857 173 814 173 771.2 173C728.3 173 685.7 173 642.8 173C600 173 557 173 514.2 173C471.3 173 428.7 173 385.8 173C343 173 300 173 257.2 173C214.3 173 171.7 173 128.8 173C86 173 43 173 21.5 173H0V62Z" fill="#888E96"/>
<path d="M0 125L21.5 123.5C43 122 86 119 128.8 118.2C171.7 117.3 214.3 118.7 257.2 113.3C300 108 343 96 385.8 90.5C428.7 85 471.3 86 514.2 89.3C557 92.7 600 98.3 642.8 100.7C685.7 103 728.3 102 771.2 100C814 98 857 95 878.5 93.5L900 92V173H878.5C857 173 814 173 771.2 173C728.3 173 685.7 173 642.8 173C600 173 557 173 514.2 173C471.3 173 428.7 173 385.8 173C343 173 300 173 257.2 173C214.3 173 171.7 173 128.8 173C86 173 43 173 21.5 173H0V125Z" fill="#C2C5C9"/>
<path d="M0 132L21.5 133.8C43 135.7 86 139.3 128.8 138.8C171.7 138.3 214.3 133.7 257.2 132.2C300 130.7 343 132.3 385.8 135.5C428.7 138.7 471.3 143.3 514.2 142.5C557 141.7 600 135.3 642.8 134.3C685.7 133.3 728.3 137.7 771.2 138.8C814 140 857 138 878.5 137L900 136V173H878.5C857 173 814 173 771.2 173C728.3 173 685.7 173 642.8 173C600 173 557 173 514.2 173C471.3 173 428.7 173 385.8 173C343 173 300 173 257.2 173C214.3 173 171.7 173 128.8 173C86 173 43 173 21.5 173H0V132Z" fill="white"/>
</g>
<defs>
<clipPath id="clip0_1_45">
<rect width="900" height="173" fill="white"/>
</clipPath>
</defs>
</svg>
